<?xml version="1.0" encoding="UTF-8" standalone="no"?>
<!DOCTYPE svg PUBLIC "-//W3C//DTD SVG 1.1//EN" "http://www.w3.org/Graphics/SVG/1.1/DTD/svg11.dtd">
<!-- Created with Vectornator (http://vectornator.io/) -->
<svg height="60.0pt" stroke-miterlimit="10" style="fill-rule:nonzero;clip-rule:evenodd;stroke-linecap:round;stroke-linejoin:round;" version="1.1" viewBox="0 0 550 60" width="550.0pt" xml:space="preserve" xmlns="http://www.w3.org/2000/svg" xmlns:xlink="http://www.w3.org/1999/xlink">
<defs/>
<g id="Layer-1">
<path d="M39.4696 15.6278C36.5314 15.6278 34.1472 18.012 34.1473 20.9502C34.1473 23.8885 36.5314 26.2726 39.4696 26.2726C42.4079 26.2726 44.792 23.8885 44.792 20.9502C44.792 18.012 42.4079 15.6278 39.4696 15.6278ZM4.65956 15.6655C3.97648 15.7496 3.29092 15.9778 2.65708 16.343C0.121639 17.8037-0.753401 21.0346 0.707289 23.57L11.1639 41.7279C12.6245 44.2633 15.8554 45.1233 18.3909 43.6626C20.9263 42.2019 21.8014 38.9635 20.3407 36.428L9.89914 18.2928C8.80364 16.3912 6.70878 15.4131 4.65956 15.6655ZM21.0558 15.6655C20.3728 15.7496 19.6872 15.9778 19.0534 16.343C16.5179 17.8037 15.6429 21.0346 17.1036 23.57L27.5601 41.7279C29.0208 44.2633 32.2518 45.1233 34.7871 43.6626C37.3226 42.2019 38.1976 38.9635 36.7369 36.428L26.2954 18.2928C25.1999 16.3912 23.105 15.4131 21.0558 15.6655Z" fill="#ffffff" fill-rule="nonzero" opacity="1" stroke="none"/>
<g opacity="1">
<path d="M110.217 43.8737L117.274 43.8737L117.274 35.7399L122.043 35.7399C128.235 35.7399 132.234 31.9325 132.234 25.9907L132.234 25.9523C132.234 20.0105 128.235 16.1263 122.043 16.1263L110.217 16.1263L110.217 43.8737ZM120.351 21.5296C123.331 21.5296 125.1 23.0679 125.1 25.9523L125.1 25.9907C125.1 28.8751 123.331 30.4327 120.351 30.4327L117.274 30.4327L117.274 21.5296L120.351 21.5296Z" fill="#ffffff" fill-rule="nonzero" opacity="1" stroke="none"/>
<path d="M148.29 44.3737C156.751 44.3737 162.001 38.855 162.001 30.0096L162.001 29.9712C162.001 21.145 156.732 15.6263 148.29 15.6263C139.907 15.6263 134.599 21.145 134.599 29.9712L134.599 30.0096C134.599 38.855 139.868 44.3737 148.29 44.3737ZM148.29 38.5281C144.329 38.5281 141.791 35.2784 141.791 30.0096L141.791 29.9712C141.791 24.7024 144.348 21.4719 148.29 21.4719C152.271 21.4719 154.828 24.7216 154.828 29.9712L154.828 30.0096C154.828 35.2207 152.328 38.5281 148.29 38.5281Z" fill="#ffffff" fill-rule="nonzero" opacity="1" stroke="none"/>
<path d="M165.443 43.8737L183.979 43.8737L183.979 38.2012L172.5 38.2012L172.5 16.1263L165.443 16.1263L165.443 43.8737Z" fill="#ffffff" fill-rule="nonzero" opacity="1" stroke="none"/>
<path d="M187.21 43.8737L194.267 43.8737L194.267 16.1263L187.21 16.1263L187.21 43.8737Z" fill="#ffffff" fill-rule="nonzero" opacity="1" stroke="none"/>
<path d="M209.15 44.3737C216.496 44.3737 220.841 40.8548 220.841 35.3168L220.841 35.2976C220.841 30.8557 218.111 28.4713 212.227 27.3368L209.381 26.7984C206.4 26.2407 205.093 25.4523 205.093 23.9525L205.093 23.9332C205.093 22.3372 206.554 21.1643 209.15 21.1643C211.688 21.1643 213.477 22.2988 213.688 24.1255L213.708 24.3371L220.265 24.3371L220.245 23.9332C219.995 18.8952 216.053 15.6263 209.093 15.6263C202.728 15.6263 198.094 19.0683 198.094 24.414L198.094 24.4332C198.094 28.6828 200.997 31.3941 206.497 32.4132L209.343 32.9517C212.592 33.5862 213.823 34.3169 213.823 35.8937L213.823 35.9129C213.823 37.6435 212.092 38.8357 209.285 38.8357C206.574 38.8357 204.497 37.6628 204.151 35.8745L204.112 35.6629L197.555 35.6629L197.574 36.0091C197.882 41.3163 202.247 44.3737 209.15 44.3737Z" fill="#ffffff" fill-rule="nonzero" opacity="1" stroke="none"/>
<path d="M224.091 43.8737L231.148 43.8737L231.148 32.7017L242.205 32.7017L242.205 43.8737L249.243 43.8737L249.243 16.1263L242.205 16.1263L242.205 27.0291L231.148 27.0291L231.148 16.1263L224.091 16.1263L224.091 43.8737Z" fill="#ffffff" fill-rule="nonzero" opacity="1" stroke="none"/>
<path d="M267.53 43.8737L274.567 43.8737L274.567 21.7988L282.22 21.7988L282.22 16.1263L259.876 16.1263L259.876 21.7988L267.53 21.7988L267.53 43.8737Z" fill="#ffffff" fill-rule="nonzero" opacity="1" stroke="none"/>
<path d="M285.201 43.8737L292.258 43.8737L292.258 34.3169L295.854 34.3169L300.623 43.8737L308.545 43.8737L302.988 33.2593C305.872 32.0094 307.718 28.9328 307.718 25.3754L307.718 25.337C307.718 19.4529 303.93 16.1263 297.219 16.1263L285.201 16.1263L285.201 43.8737ZM292.258 29.202L292.258 21.4527L296.392 21.4527C298.873 21.4527 300.527 22.991 300.527 25.3177L300.527 25.3562C300.527 27.7021 298.931 29.202 296.431 29.202L292.258 29.202Z" fill="#ffffff" fill-rule="nonzero" opacity="1" stroke="none"/>
<path d="M309.718 43.8737L317.121 43.8737L318.852 37.7781L327.909 37.7781L329.639 43.8737L337.042 43.8737L327.697 16.1263L319.063 16.1263L309.718 43.8737ZM323.313 22.1642L323.448 22.1642L326.447 32.7017L320.313 32.7017L323.313 22.1642Z" fill="#ffffff" fill-rule="nonzero" opacity="1" stroke="none"/>
<path d="M350.772 44.3737C357.983 44.3737 363.059 39.7395 363.309 33.5285L363.328 33.317L356.541 33.317L356.502 33.5285C356.021 36.6244 353.849 38.5281 350.791 38.5281C346.926 38.5281 344.465 35.3361 344.465 29.9712L344.465 29.9519C344.465 24.6447 346.907 21.4719 350.772 21.4719C354.002 21.4719 356.021 23.5102 356.464 26.3946L356.502 26.683L363.29 26.683L363.29 26.4907C363.04 20.2797 358.021 15.6263 350.772 15.6263C342.484 15.6263 337.273 20.9143 337.273 29.9712L337.273 29.9904C337.273 39.0473 342.446 44.3737 350.772 44.3737Z" fill="#ffffff" fill-rule="nonzero" opacity="1" stroke="none"/>
<path d="M366.636 43.8737L373.693 43.8737L373.693 36.0283L376.077 32.9324L383 43.8737L391.287 43.8737L381.231 28.3944L390.73 16.1263L383.173 16.1263L373.828 28.3367L373.693 28.3367L373.693 16.1263L366.636 16.1263L366.636 43.8737Z" fill="#ffffff" fill-rule="nonzero" opacity="1" stroke="none"/>
<path d="M393.441 43.8737L412.459 43.8737L412.459 38.2012L400.498 38.2012L400.498 32.5863L411.747 32.5863L411.747 27.2791L400.498 27.2791L400.498 21.7988L412.459 21.7988L412.459 16.1263L393.441 16.1263L393.441 43.8737Z" fill="#ffffff" fill-rule="nonzero" opacity="1" stroke="none"/>
<path d="M416.439 43.8737L423.496 43.8737L423.496 34.3169L427.092 34.3169L431.861 43.8737L439.783 43.8737L434.226 33.2593C437.11 32.0094 438.956 28.9328 438.956 25.3754L438.956 25.337C438.956 19.4529 435.168 16.1263 428.457 16.1263L416.439 16.1263L416.439 43.8737ZM423.496 29.202L423.496 21.4527L427.63 21.4527C430.111 21.4527 431.765 22.991 431.765 25.3177L431.765 25.3562C431.765 27.7021 430.169 29.202 427.669 29.202L423.496 29.202Z" fill="#ffffff" fill-rule="nonzero" opacity="1" stroke="none"/>
</g>
</g>
</svg>
